<svg width="56" height="56" viewBox="0 0 56 56" fill="none" xmlns="http://www.w3.org/2000/svg">
<g clip-path="url(#clip0)">
<path d="M14.4254 32.2389H22.9115C23.3642 32.2389 23.731 31.872 23.731 31.4194C23.731 30.9668 23.3642 30.5999 22.9115 30.5999H14.4254C13.9727 30.5999 13.6058 30.9668 13.6058 31.4194C13.6058 31.872 13.9727 32.2389 14.4254 32.2389Z" fill="#dc3545"/>
<path d="M34.7918 30.5999H26.3059C25.8532 30.5999 25.4863 30.9668 25.4863 31.4194C25.4863 31.872 25.8532 32.2389 26.3059 32.2389H34.7918C35.2445 32.2389 35.6114 31.872 35.6114 31.4194C35.6114 30.9668 35.2445 30.5999 34.7918 30.5999Z" fill="#dc3545"/>
<path d="M14.4254 35.6596H22.9115C23.3642 35.6596 23.731 35.2927 23.731 34.8401C23.731 34.3875 23.3642 34.0205 22.9115 34.0205H14.4254C13.9727 34.0205 13.6058 34.3875 13.6058 34.8401C13.6058 35.2927 13.9727 35.6596 14.4254 35.6596Z" fill="#dc3545"/>
<path d="M34.7918 34.0205H26.3059C25.8532 34.0205 25.4863 34.3875 25.4863 34.8401C25.4863 35.2926 25.8532 35.6596 26.3059 35.6596H34.7918C35.2445 35.6596 35.6114 35.2926 35.6114 34.8401C35.6114 34.3875 35.2445 34.0205 34.7918 34.0205Z" fill="#dc3545"/>
<path d="M14.4254 39.0278H22.9115C23.3642 39.0278 23.731 38.6608 23.731 38.2082C23.731 37.7556 23.3642 37.3887 22.9115 37.3887H14.4254C13.9727 37.3887 13.6058 37.7556 13.6058 38.2082C13.6058 38.6608 13.9727 39.0278 14.4254 39.0278Z" fill="#dc3545"/>
<path d="M34.7918 37.3887H26.3059C25.8532 37.3887 25.4863 37.7556 25.4863 38.2082C25.4863 38.6608 25.8532 39.0278 26.3059 39.0278H34.7918C35.2445 39.0278 35.6114 38.6608 35.6114 38.2082C35.6114 37.7556 35.2445 37.3887 34.7918 37.3887Z" fill="#dc3545"/>
<path d="M14.4254 42.3962H22.9115C23.3642 42.3962 23.731 42.0292 23.731 41.5766C23.731 41.124 23.3642 40.7571 22.9115 40.7571H14.4254C13.9727 40.7571 13.6058 41.124 13.6058 41.5766C13.6058 42.0292 13.9727 42.3962 14.4254 42.3962Z" fill="#dc3545"/>
<path d="M34.7918 40.7571H26.3059C25.8532 40.7571 25.4863 41.124 25.4863 41.5766C25.4863 42.0292 25.8532 42.3962 26.3059 42.3962H34.7918C35.2445 42.3962 35.6114 42.0292 35.6114 41.5766C35.6114 41.124 35.2445 40.7571 34.7918 40.7571Z" fill="#dc3545"/>
<path d="M48.369 33.8737C48.8217 33.8737 49.1885 33.5067 49.1885 33.0541V7.59172C49.1885 7.13912 48.8217 6.77217 48.369 6.77217H45.7944V4.26398C45.7944 3.81139 45.4276 3.44444 44.9749 3.44444H38.6024L35.3689 0.238C35.2259 0.0861875 34.9961 0 34.7913 0H7.63052C7.17782 0 6.81097 0.366953 6.81097 0.819547V15.4702C6.81097 15.9228 7.17782 16.2898 7.63052 16.2898C8.08322 16.2898 8.45007 15.9228 8.45007 15.4702V1.6392H33.9721V7.65887C33.9721 8.06969 34.3858 8.48389 34.8038 8.47831L40.7675 8.47842V47.6218H8.45018V19.0425C8.45018 18.5899 8.08333 18.223 7.63063 18.223C7.17793 18.223 6.81108 18.5899 6.81108 19.0425V48.4413C6.81108 48.8939 7.17793 49.2609 7.63063 49.2609H10.2118V51.7862C10.2118 52.2388 10.5786 52.6058 11.0313 52.6058H13.6058V55.1803C13.6058 55.6329 13.9726 55.9999 14.4253 55.9999H48.3689C48.8216 55.9999 49.1884 55.6329 49.1884 55.1803V36.6263C49.1884 36.1737 48.8216 35.8067 48.3689 35.8067C47.9162 35.8067 47.5493 36.1737 47.5493 36.6263V54.3608H15.245V52.6058H33.0057C33.4584 52.6058 33.8253 52.2388 33.8253 51.7862C33.8253 51.3336 33.4584 50.9667 33.0057 50.9667H11.8509V49.2609H41.5872C42.0399 49.2609 42.4067 48.8939 42.4067 48.4413V7.55869C42.4067 7.34278 42.3176 7.12884 42.1643 6.9767L40.2552 5.08353H44.1552V50.9667H36.5779C36.1252 50.9667 35.7584 51.3336 35.7584 51.7862C35.7584 52.2388 36.1252 52.6058 36.5779 52.6058H44.9748C45.4275 52.6058 45.7943 52.2388 45.7943 51.7862V8.47875H47.5493V33.054C47.5493 33.5067 47.9163 33.8737 48.369 33.8737ZM35.6113 2.78698L39.5935 6.76834L35.6113 6.77217V2.78698Z" fill="#dc3545"/>
<path d="M24.6085 6.83936C18.5416 6.83936 13.6058 11.7751 13.6058 17.842C13.6058 23.909 18.5416 28.8448 24.6085 28.8448C30.5621 28.8448 35.6113 23.7752 35.6113 17.842C35.6113 11.7751 30.6756 6.83936 24.6085 6.83936ZM18.6394 25.0505V21.4247C18.6394 21.1033 18.873 20.8112 19.2229 20.692L22.8513 19.7772H26.3446L29.973 20.692C30.3229 20.8112 30.5566 21.1033 30.5566 21.4247V25.0683C27.1333 27.8912 22.0547 27.8835 18.6394 25.0505ZM27.1834 15.5867C27.1834 16.9922 26.0306 18.1358 24.6128 18.1381H24.6043C23.1864 18.1358 22.0337 16.9922 22.0337 15.5867V14.4243C22.0337 13.0174 23.1888 11.8728 24.6085 11.8728C26.0283 11.8728 27.1832 13.0174 27.1832 14.4243V15.5867H27.1834ZM32.1958 23.3197V21.4247C32.1958 20.3799 31.4939 19.4549 30.4491 19.1232C30.4334 19.1181 27.7015 18.4289 27.7015 18.4289C28.3966 17.6814 28.8224 16.6828 28.8224 15.5867V14.4243C28.8224 12.1135 26.9321 10.2336 24.6084 10.2336C22.2849 10.2336 20.3945 12.1135 20.3945 14.4243V15.5867C20.3945 16.6807 20.8186 17.6777 21.5114 18.4247C21.5114 18.4247 18.7625 19.1182 18.7468 19.1232C17.702 19.4549 17.0002 20.3799 17.0002 21.4247V23.29C15.8971 21.754 15.2449 19.8732 15.2449 17.842C15.2449 12.679 19.4454 8.47845 24.6085 8.47845C29.7717 8.47845 33.9722 12.6789 33.9722 17.842C33.9722 19.8863 33.3118 21.7781 32.1958 23.3197Z" fill="#dc3545"/>
<path d="M14.4254 32.2389H22.9115C23.3642 32.2389 23.731 31.872 23.731 31.4194C23.731 30.9668 23.3642 30.5999 22.9115 30.5999H14.4254C13.9727 30.5999 13.6058 30.9668 13.6058 31.4194C13.6058 31.872 13.9727 32.2389 14.4254 32.2389Z" fill="#dc3545"/>
<path d="M34.7918 30.5999H26.3059C25.8532 30.5999 25.4863 30.9668 25.4863 31.4194C25.4863 31.872 25.8532 32.2389 26.3059 32.2389H34.7918C35.2445 32.2389 35.6114 31.872 35.6114 31.4194C35.6114 30.9668 35.2445 30.5999 34.7918 30.5999Z" fill="#dc3545"/>
<path d="M14.4254 35.6596H22.9115C23.3642 35.6596 23.731 35.2927 23.731 34.8401C23.731 34.3875 23.3642 34.0205 22.9115 34.0205H14.4254C13.9727 34.0205 13.6058 34.3875 13.6058 34.8401C13.6058 35.2927 13.9727 35.6596 14.4254 35.6596Z" fill="#dc3545"/>
<path d="M34.7918 34.0205H26.3059C25.8532 34.0205 25.4863 34.3875 25.4863 34.8401C25.4863 35.2926 25.8532 35.6596 26.3059 35.6596H34.7918C35.2445 35.6596 35.6114 35.2926 35.6114 34.8401C35.6114 34.3875 35.2445 34.0205 34.7918 34.0205Z" fill="#dc3545"/>
<path d="M14.4254 39.0278H22.9115C23.3642 39.0278 23.731 38.6608 23.731 38.2082C23.731 37.7556 23.3642 37.3887 22.9115 37.3887H14.4254C13.9727 37.3887 13.6058 37.7556 13.6058 38.2082C13.6058 38.6608 13.9727 39.0278 14.4254 39.0278Z" fill="#dc3545"/>
<path d="M34.7918 37.3887H26.3059C25.8532 37.3887 25.4863 37.7556 25.4863 38.2082C25.4863 38.6608 25.8532 39.0278 26.3059 39.0278H34.7918C35.2445 39.0278 35.6114 38.6608 35.6114 38.2082C35.6114 37.7556 35.2445 37.3887 34.7918 37.3887Z" fill="#dc3545"/>
<path d="M14.4254 42.3959H22.9115C23.3642 42.3959 23.731 42.029 23.731 41.5764C23.731 41.1238 23.3642 40.7568 22.9115 40.7568H14.4254C13.9727 40.7568 13.6058 41.1238 13.6058 41.5764C13.6058 42.029 13.9727 42.3959 14.4254 42.3959Z" fill="#dc3545"/>
<path d="M34.7918 40.7568H26.3059C25.8532 40.7568 25.4863 41.1238 25.4863 41.5764C25.4863 42.029 25.8532 42.3959 26.3059 42.3959H34.7918C35.2445 42.3959 35.6114 42.029 35.6114 41.5764C35.6114 41.1238 35.2445 40.7568 34.7918 40.7568Z" fill="#dc3545"/>
<path d="M48.369 33.8736C48.8217 33.8736 49.1886 33.5066 49.1886 33.054V7.59162C49.1886 7.13902 48.8217 6.77207 48.369 6.77207H45.7944V4.26388C45.7944 3.81129 45.4276 3.44434 44.9749 3.44434H38.6024L40.2552 5.08343H44.1552V50.9666H36.578C36.1252 50.9666 35.7584 51.3335 35.7584 51.7861C35.7584 52.2387 36.1252 52.6057 36.578 52.6057H44.9748C45.4275 52.6057 45.7943 52.2387 45.7943 51.7861V8.47865H47.5494V33.0539C47.5494 33.5066 47.9163 33.8736 48.369 33.8736Z" fill="#dc3545"/>
<path d="M10.2118 49.2608V51.7861C10.2118 52.2387 10.5786 52.6057 11.0313 52.6057H13.6058V55.1802C13.6058 55.6328 13.9727 55.9998 14.4254 55.9998H48.3689C48.8216 55.9998 49.1885 55.6328 49.1885 55.1802V36.6262C49.1885 36.1736 48.8216 35.8067 48.3689 35.8067C47.9162 35.8067 47.5494 36.1736 47.5494 36.6262V54.3607H15.245V52.6057H33.0058C33.4585 52.6057 33.8253 52.2387 33.8253 51.7861C33.8253 51.3335 33.4585 50.9666 33.0058 50.9666H11.8509V49.2608H10.2118Z" fill="#dc3545"/>
<path d="M24.6085 6.83936C18.5416 6.83936 13.6058 11.7751 13.6058 17.842C13.6058 23.909 18.5416 28.8448 24.6085 28.8448C30.5621 28.8448 35.6113 23.7752 35.6113 17.842C35.6113 11.7751 30.6756 6.83936 24.6085 6.83936ZM18.6394 25.0505V21.4247C18.6394 21.1033 18.873 20.8112 19.2229 20.692L22.8513 19.7772H26.3446L29.973 20.692C30.3229 20.8112 30.5566 21.1033 30.5566 21.4247V25.0683C27.1333 27.8912 22.0547 27.8835 18.6394 25.0505ZM27.1834 15.5867C27.1834 16.9922 26.0306 18.1358 24.6128 18.1381H24.6043C23.1864 18.1358 22.0337 16.9922 22.0337 15.5867V14.4243C22.0337 13.0174 23.1888 11.8728 24.6085 11.8728C26.0283 11.8728 27.1832 13.0174 27.1832 14.4243V15.5867H27.1834ZM32.1958 23.3197V21.4247C32.1958 20.3799 31.4939 19.4549 30.4492 19.1232C30.4334 19.1181 27.7015 18.4289 27.7015 18.4289C28.3966 17.6814 28.8224 16.6828 28.8224 15.5867V14.4243C28.8224 12.1135 26.9321 10.2336 24.6084 10.2336C22.2849 10.2336 20.3945 12.1135 20.3945 14.4243V15.5867C20.3945 16.6807 20.8186 17.6777 21.5114 18.4247C21.5114 18.4247 18.7625 19.1182 18.7468 19.1232C17.702 19.4549 17.0002 20.3799 17.0002 21.4247V23.29C15.8971 21.7539 15.2449 19.8732 15.2449 17.842C15.2449 12.679 19.4454 8.47845 24.6085 8.47845C29.7717 8.47845 33.9722 12.6789 33.9722 17.842C33.9722 19.8863 33.3118 21.7781 32.1958 23.3197Z" fill="#dc3545"/>
</g>
<defs>
<clipPath id="clip0">
<rect width="56" height="56" fill="white"/>
</clipPath>
</defs>
</svg>
