<svg width="56" height="56" viewBox="0 0 56 56" fill="none" xmlns="http://www.w3.org/2000/svg">
<path d="M6.5171 6.52999V55.0389C6.5171 55.5542 6.93478 55.9719 7.45006 55.9719H42.899C43.4139 55.9719 43.8315 55.5542 43.8315 55.0389V15.8589C43.8315 15.8381 43.8216 15.8205 43.8196 15.8001C43.815 15.7183 43.7989 15.6376 43.772 15.5603C43.7616 15.5304 43.7543 15.5015 43.7412 15.4723C43.6959 15.3709 43.6329 15.2783 43.5545 15.1991L34.226 5.87062C34.1468 5.79184 34.0538 5.72883 33.9516 5.68387C33.9236 5.67196 33.8951 5.66197 33.8659 5.65313C33.7879 5.62623 33.7069 5.61009 33.6242 5.60471C33.6085 5.6074 33.59 5.59741 33.5704 5.59741H7.45006C6.93478 5.59741 6.5171 6.01471 6.5171 6.52999ZM40.6469 14.9259H34.503V8.7821L40.6469 14.9259ZM8.38265 7.46296H32.6375V15.8589C32.6375 16.3738 33.0552 16.7915 33.5701 16.7915H41.966V54.1063H8.38265V7.46296Z" fill="#dc3545"/>
<path d="M45.6976 48.5089V50.3744H48.4961C49.0114 50.3744 49.4291 49.9571 49.4291 49.4419V0.932967C49.4291 0.417683 49.0114 0 48.4961 0H13.0472C12.5319 0 12.1142 0.417683 12.1142 0.932967V3.73148H13.9802V1.86555H47.5631V48.5089H45.6976Z" fill="#dc3545"/>
<path d="M13.9801 18.6575H36.3686V20.523H13.9801V18.6575Z" fill="#dc3545"/>
<path d="M13.9801 13.0601H21.4431V14.926H13.9801V13.0601Z" fill="#dc3545"/>
<path d="M13.9801 24.2544H28.906V26.1203H13.9801V24.2544Z" fill="#dc3545"/>
<path d="M30.7716 24.2544H36.3687V26.1203H30.7716V24.2544Z" fill="#dc3545"/>
<path d="M13.9801 29.8513H36.3686V31.7173H13.9801V29.8513Z" fill="#dc3545"/>
<path d="M13.9801 41.0459H36.3686V42.9118H13.9801V41.0459Z" fill="#dc3545"/>
<path d="M22.3757 35.449H36.3687V37.3145H22.3757V35.449Z" fill="#dc3545"/>
<path d="M13.9801 35.449H20.5101V37.3145H13.9801V35.449Z" fill="#dc3545"/>
<path d="M13.9801 46.6433H17.7116V48.5089H13.9801V46.6433Z" fill="#dc3545"/>
<path d="M19.5772 46.6433H36.3686V48.5089H19.5772V46.6433Z" fill="#dc3545"/>
</svg>
