<svg width="56" height="56" viewBox="0 0 56 56" fill="none" xmlns="http://www.w3.org/2000/svg">
<g clip-path="url(#clip0)">
<path d="M35.8731 5.56201H18.8331C18.38 5.56201 18.0128 5.92918 18.0128 6.38232C18.0128 6.83546 18.38 7.20263 18.8331 7.20263H35.8731C36.3262 7.20263 36.6934 6.83546 36.6934 6.38232C36.6934 5.92918 36.3262 5.56201 35.8731 5.56201Z" fill="#dc3545"/>
<path d="M35.8731 10.364H18.8331C18.38 10.364 18.0128 10.7312 18.0128 11.1843C18.0128 11.6375 18.38 12.0046 18.8331 12.0046H35.8731C36.3262 12.0046 36.6934 11.6375 36.6934 11.1843C36.6934 10.7312 36.3262 10.364 35.8731 10.364Z" fill="#dc3545"/>
<path d="M51.5731 28.3698H46.7032V26.0797C46.7032 23.0614 44.2476 20.606 41.2293 20.606H32.0068C28.9885 20.606 26.5329 23.0614 26.5329 26.0797V28.3698H21.663C19.2137 28.3698 17.2361 30.3558 17.2361 32.7968V51.5571C17.2361 53.998 19.222 55.9841 21.663 55.9841H51.5732C54.0141 55.9841 56.0002 53.9981 56.0002 51.5571V48.0024C56.0002 47.5493 55.633 47.1821 55.1799 47.1821C54.7267 47.1821 54.3596 47.5493 54.3596 48.0024V51.5571C54.3596 53.0935 53.1096 54.3434 51.5732 54.3434H21.663C20.1266 54.3434 18.8767 53.0935 18.8767 51.5571V39.9308C20.1694 41.5247 22.1141 42.5694 24.3009 42.6549V43.9073C24.3009 45.5603 25.6458 46.9052 27.2988 46.9052C28.9518 46.9052 30.2966 45.5603 30.2966 43.9073V42.6606H42.9395V43.9073C42.9395 45.5603 44.2844 46.9052 45.9374 46.9052C47.5903 46.9052 48.9352 45.5603 48.9352 43.9073V42.6549C51.1221 42.5694 53.0667 41.5247 54.3594 39.9308V44.1674C54.3594 44.6206 54.7266 44.9877 55.1798 44.9877C55.6329 44.9877 56.0001 44.6206 56.0001 44.1674V32.7966C56.0001 30.3564 54.0233 28.3698 51.5731 28.3698ZM28.1735 26.0797C28.1735 23.9662 29.8931 22.2466 32.0068 22.2466H41.2293C43.343 22.2466 45.0626 23.9662 45.0626 26.0797V28.3698H43.3542V26.0797C43.3542 24.9082 42.401 23.955 41.2293 23.955H32.0068C30.8352 23.955 29.882 24.9082 29.882 26.0797V28.3698H28.1735V26.0797ZM31.5226 28.3698V26.0797C31.5226 25.8129 31.7397 25.5956 32.0068 25.5956H41.2293C41.4963 25.5956 41.7136 25.8128 41.7136 26.0797V28.3698H31.5226ZM28.656 43.9073C28.656 44.6558 28.0472 45.2646 27.2988 45.2646C26.5503 45.2646 25.9415 44.6558 25.9415 43.9073V40.9749C25.9415 40.2264 26.5503 39.6176 27.2988 39.6176C28.0472 39.6176 28.656 40.2264 28.656 40.9749V43.9073ZM47.2946 43.9073C47.2946 44.6558 46.6858 45.2646 45.9374 45.2646C45.1889 45.2646 44.5801 44.6558 44.5801 43.9073V41.8487C44.5801 41.8458 44.5802 41.843 44.5802 41.8402C44.5802 41.8375 44.5801 41.8346 44.5801 41.8318V40.975C44.5801 40.2265 45.1889 39.6177 45.9374 39.6177C46.6858 39.6177 47.2946 40.2265 47.2946 40.975V43.9073ZM48.9352 41.0126V40.975C48.9352 39.322 47.5903 37.9771 45.9374 37.9771C44.2844 37.9771 42.9395 39.322 42.9395 40.975V41.0199H30.2966V40.975C30.2966 39.322 28.9518 37.9771 27.2988 37.9771C25.6458 37.9771 24.3009 39.322 24.3009 40.975V41.0126C21.2842 40.8607 18.8767 38.3587 18.8767 35.305V32.7966C18.8767 31.258 20.1237 30.0104 21.663 30.0104H51.5732C53.1086 30.0104 54.3596 31.2541 54.3596 32.7967V35.305C54.3594 38.3587 51.9519 40.8607 48.9352 41.0126Z" fill="#dc3545"/>
<path d="M16.1784 54.3455H4.05661C2.72442 54.3455 1.64062 53.2617 1.64062 51.9295V12.5268C1.64062 12.3498 1.65955 12.1756 1.69652 12.0067H9.16191C10.7206 12.0067 11.9887 10.7386 11.9887 9.17997V1.71458C12.1577 1.67772 12.3318 1.65869 12.5089 1.65869H40.3216C41.6538 1.65869 42.7376 2.74249 42.7376 4.07468V18.1493C42.7376 18.6024 43.1048 18.9696 43.5579 18.9696C44.0111 18.9696 44.3782 18.6024 44.3782 18.1493V4.07468C44.3782 1.83785 42.5585 0.0180664 40.3216 0.0180664H12.5088C11.4252 0.0180664 10.4064 0.439926 9.6402 1.2061L1.18803 9.65838C0.421859 10.4246 0 11.4433 0 12.5268V51.9295C0 54.1664 1.81978 55.9861 4.05661 55.9861H16.1784C16.6316 55.9861 16.9987 55.619 16.9987 55.1658C16.9987 54.7127 16.6316 54.3455 16.1784 54.3455ZM10.348 2.81883V9.17997C10.348 9.83393 9.81586 10.366 9.1618 10.366H2.80077L10.348 2.81883Z" fill="#dc3545"/>
</g>
<defs>
<clipPath id="clip0">
<rect width="56" height="56" fill="white"/>
</clipPath>
</defs>
</svg>
