<svg width="56" height="56" viewBox="0 0 56 56" fill="none" xmlns="http://www.w3.org/2000/svg">
<g clip-path="url(#clip0)">
<path d="M55.5391 7.0676C55.5059 7.03632 48.9279 0.763117 48.9279 0.763117C48.6765 0.521836 48.4164 0.272461 47.9308 0.272461H21.4489C20.6754 0.272461 20.046 0.901695 20.046 1.6752V5.98271L10.7125 7.58265C9.96441 7.7139 9.46128 8.42987 9.59089 9.17723L10.0646 11.9392C7.03086 12.9601 3.91619 14.0125 0.909361 15.0926C0.198861 15.3523 -0.173998 16.1423 0.0795331 16.8571L6.0607 33.4838C6.18102 33.8184 6.49635 34.0268 6.83267 34.0268C6.92477 34.0268 7.01861 34.0111 7.11027 33.9781C7.53661 33.8248 7.75788 33.3549 7.60453 32.9286L1.71185 16.5477C4.54466 15.5334 7.47831 14.5408 10.3454 13.5757L13.1641 30.0088L16.4075 48.9342C16.5246 49.6022 17.1118 50.0776 17.7747 50.0776C17.8497 50.0776 17.9258 50.0714 18.0022 50.0589L26.7867 48.5513L33.6511 47.3747L23.3271 51.0855L15.1858 54.0127L8.863 36.4264C8.70977 36 8.24 35.7788 7.81355 35.932C7.3872 36.0852 7.16594 36.5551 7.31917 36.9814L13.7316 54.8177C13.9367 55.3785 14.468 55.7272 15.0297 55.7272C15.1849 55.7272 15.3425 55.7005 15.496 55.6444L23.8819 52.6294L42.9235 45.7854L46.5612 45.1618H54.5971C55.3706 45.1618 55.9999 44.5312 55.9999 43.7559V7.99193C56 7.50095 55.7336 7.25048 55.5391 7.0676ZM53.3657 7.26185H49.2609L49.1592 7.26229C48.9626 7.2636 48.5025 7.26699 48.3858 7.15105C48.3589 7.12426 48.3274 7.03479 48.3274 6.86865L48.3178 2.44826L53.3657 7.26185ZM54.3594 43.521H21.6867V27.534C21.6867 27.0809 21.3194 26.7136 20.8664 26.7136C20.4133 26.7136 20.046 27.0809 20.046 27.534V43.7557C20.046 44.5308 20.6754 45.1616 21.4489 45.1616H36.8502L26.5093 46.9341L17.9801 48.3979L14.7811 29.7314L11.2516 9.15469L20.0459 7.64718V23.7277C20.0459 24.1807 20.4132 24.548 20.8662 24.548C21.3193 24.548 21.6866 24.1807 21.6866 23.7277V1.91298H46.676L46.6867 6.87051C46.6867 7.47141 46.8695 7.95748 47.2299 8.31535C47.7837 8.86518 48.5665 8.90346 49.0524 8.90346C49.0942 8.90346 49.1338 8.90313 49.1709 8.90291L54.3594 8.90259V43.521Z" fill="#dc3545"/>
<path d="M25.6408 13.0098C25.6408 13.4628 26.0081 13.8301 26.4612 13.8301H49.9151C50.3681 13.8301 50.7354 13.4628 50.7354 13.0098C50.7354 12.5567 50.3681 12.1895 49.9151 12.1895H26.4612C26.0081 12.1895 25.6408 12.5567 25.6408 13.0098Z" fill="#dc3545"/>
<path d="M49.9151 18.0176H26.4612C26.0081 18.0176 25.6408 18.3849 25.6408 18.8379C25.6408 19.2909 26.0081 19.6582 26.4612 19.6582H49.9151C50.3681 19.6582 50.7354 19.2909 50.7354 18.8379C50.7354 18.3849 50.3681 18.0176 49.9151 18.0176Z" fill="#dc3545"/>
<path d="M49.9151 23.845H26.4612C26.0081 23.845 25.6408 24.2123 25.6408 24.6653C25.6408 25.1183 26.0081 25.4856 26.4612 25.4856H49.9151C50.3681 25.4856 50.7354 25.1183 50.7354 24.6653C50.7354 24.2123 50.3681 23.845 49.9151 23.845Z" fill="#dc3545"/>
<path d="M49.9151 29.6731H26.4612C26.0081 29.6731 25.6408 30.0404 25.6408 30.4934C25.6408 30.9464 26.0081 31.3137 26.4612 31.3137H49.9151C50.3681 31.3137 50.7354 30.9464 50.7354 30.4934C50.7354 30.0404 50.3681 29.6731 49.9151 29.6731Z" fill="#dc3545"/>
<path d="M49.9151 35.5005H26.4612C26.0081 35.5005 25.6408 35.8678 25.6408 36.3208C25.6408 36.7738 26.0081 37.1411 26.4612 37.1411H49.9151C50.3681 37.1411 50.7354 36.7738 50.7354 36.3208C50.7354 35.8678 50.3681 35.5005 49.9151 35.5005Z" fill="#dc3545"/>
</g>
<defs>
<clipPath id="clip0">
<rect width="56" height="56" fill="white"/>
</clipPath>
</defs>
</svg>
