<svg width="56" height="56" viewBox="0 0 56 56" fill="none" xmlns="http://www.w3.org/2000/svg">
<path d="M19.1348 44.521L29.9722 33.6836L31.2493 34.9608L20.412 45.7982L19.1348 44.521Z" fill="#dc3545"/>
<path d="M21.5871 38.8388C23.081 38.8388 24.2968 37.623 24.2968 36.1291C24.2968 34.6352 23.081 33.4194 21.5871 33.4194C20.0932 33.4194 18.8774 34.6352 18.8774 36.1291C18.8774 37.623 20.0932 38.8388 21.5871 38.8388ZM21.5871 35.2259C22.0857 35.2259 22.4903 35.6305 22.4903 36.1291C22.4903 36.6277 22.0857 37.0323 21.5871 37.0323C21.0885 37.0323 20.6839 36.6277 20.6839 36.1291C20.6839 35.6305 21.0885 35.2259 21.5871 35.2259Z" fill="#dc3545"/>
<path d="M28.8129 40.6453C27.319 40.6453 26.1032 41.861 26.1032 43.3549C26.1032 44.8489 27.319 46.0646 28.8129 46.0646C30.3068 46.0646 31.5226 44.8489 31.5226 43.3549C31.5226 41.861 30.3068 40.6453 28.8129 40.6453ZM28.8129 44.2582C28.3143 44.2582 27.9097 43.8535 27.9097 43.3549C27.9097 42.8564 28.3143 42.4517 28.8129 42.4517C29.3115 42.4517 29.7161 42.8564 29.7161 43.3549C29.7161 43.8535 29.3115 44.2582 28.8129 44.2582Z" fill="#dc3545"/>
<path d="M3.61298 20.2776H15.3549V22.084H3.61298V20.2776Z" fill="#dc3545"/>
<path d="M17.1613 20.2776H18.9677V22.084H17.1613V20.2776Z" fill="#dc3545"/>
<path d="M3.61298 23.8904H18.9678V25.6968H3.61298V23.8904Z" fill="#dc3545"/>
<path d="M3.61298 16.665H33.5058V18.4715H3.61298V16.665Z" fill="#dc3545"/>
<path d="M3.61298 13.0527H33.5058V14.8592H3.61298V13.0527Z" fill="#dc3545"/>
<path d="M3.61298 9.44019H33.5058V11.2466H3.61298V9.44019Z" fill="#dc3545"/>
<path d="M3.61298 27.5034H5.41943V29.3099H3.61298V27.5034Z" fill="#dc3545"/>
<path d="M7.22577 27.5034H18.9677V29.3099H7.22577V27.5034Z" fill="#dc3545"/>
<path d="M3.61298 31.1162H12.6452V32.9227H3.61298V31.1162Z" fill="#dc3545"/>
<path d="M50.1288 6.56665L50.1288 56L48.3223 56L48.3223 6.56665L50.1288 6.56665Z" fill="#dc3545"/>
<path d="M46.1785 48.6733L49.887 55.0967L48.3225 55.9999L44.614 49.5766L46.1785 48.6733Z" fill="#dc3545"/>
<path d="M50.129 56L53.8381 49.5757L52.2736 48.6725L48.5646 55.0968L50.129 56Z" fill="#dc3545"/>
<path d="M36.96 6.32258V0H0V39.5234C0 40.4744 0.35868 41.4057 0.98448 42.0777L5.88 47.3417V56H42V6.32258H36.96ZM1.68 1.80645H35.28V48.7742H10.92V39.7419H1.70016C1.69176 39.6688 1.68 39.5965 1.68 39.5234V1.80645ZM9.24 48.3723C9.19128 48.3307 9.14004 48.2928 9.09552 48.2449L2.86776 41.5484H9.24V48.3723ZM40.32 54.1935H7.56V49.1481L7.90776 49.5221C8.53272 50.195 9.39876 50.5806 10.2833 50.5806H36.96V8.12903H40.32V54.1935Z" fill="#dc3545"/>
</svg>
