<svg width="56" height="56" viewBox="0 0 56 56" fill="none" xmlns="http://www.w3.org/2000/svg">
<path d="M5.27618 51.2017C4.79254 51.2017 4.39691 50.8103 4.39691 50.3267C4.39691 49.8426 4.78357 49.4517 5.26678 49.4517H5.27618C5.7594 49.4517 6.15118 49.8426 6.15118 50.3267C6.15118 50.8103 5.7594 51.2017 5.27618 51.2017Z" fill="#dc3545"/>
<path d="M53.3767 41.9834C53.0738 41.9834 52.7798 41.8266 52.6192 41.5468C52.3765 41.1276 52.5201 40.5931 52.9375 40.3517C53.7476 39.8835 54.25 39.0119 54.25 38.0767C54.25 36.6292 53.0721 35.4517 51.625 35.4517C51.1409 35.4517 50.75 35.0603 50.75 34.5767C50.75 34.0926 51.1409 33.7017 51.625 33.7017C54.0372 33.7017 56 35.664 56 38.0767C56 39.6331 55.1626 41.0858 53.8142 41.8655C53.6762 41.9458 53.5254 41.9834 53.3767 41.9834Z" fill="#dc3545"/>
<path d="M29.7507 54.7015C29.4393 54.7015 29.1372 54.5353 28.9791 54.2414C28.7497 53.8159 28.9099 53.2848 29.335 53.0566L52.96 40.3367C53.3834 40.1073 53.9167 40.2675 54.1448 40.6926C54.3734 41.1181 54.214 41.6492 53.7889 41.8773L30.1639 54.5973C30.0327 54.6682 29.8909 54.7015 29.7507 54.7015Z" fill="#dc3545"/>
<path d="M29.7508 54.7017C29.7133 54.7017 29.6757 54.6991 29.6372 54.6936L9.5122 52.0686C9.03283 52.0066 8.69403 51.5674 8.75769 51.0889C8.82006 50.6091 9.25586 50.266 9.73779 50.3344L29.8628 52.9594C30.3422 53.0217 30.681 53.461 30.6173 53.9395C30.5601 54.3804 30.1841 54.7017 29.7508 54.7017Z" fill="#dc3545"/>
<path d="M9.625 53.8267H0.875C0.39093 53.8267 0 53.4353 0 52.9517V29.3267C0 28.8426 0.39093 28.4517 0.875 28.4517H9.625C10.1091 28.4517 10.5 28.8426 10.5 29.3267V52.9517C10.5 53.4353 10.1091 53.8267 9.625 53.8267ZM1.75 52.0767H8.75V30.2017H1.75V52.0767Z" fill="#dc3545"/>
<path d="M30.625 41.5766C30.1409 41.5766 29.75 41.1853 29.75 40.7016C29.75 40.2176 30.1409 39.8266 30.625 39.8266C32.0721 39.8266 33.25 38.6487 33.25 37.2016C33.25 35.9195 32.3365 34.8321 31.0775 34.6151C30.6015 34.5326 30.2819 34.0806 30.3644 33.6042C30.4464 33.1283 30.9006 32.8125 31.3748 32.8911C33.4756 33.2517 35 35.065 35 37.2016C35 39.6139 33.0372 41.5766 30.625 41.5766Z" fill="#dc3545"/>
<path d="M17.5 31.9517H9.625C9.14093 31.9517 8.75 31.5603 8.75 31.0767C8.75 30.5926 9.14093 30.2017 9.625 30.2017H17.5C17.9841 30.2017 18.375 30.5926 18.375 31.0767C18.375 31.5603 17.9841 31.9517 17.5 31.9517Z" fill="#dc3545"/>
<path d="M30.2576 41.5557C30.2358 41.5557 30.2119 41.5549 30.1892 41.5527L19.1825 40.6982C18.7006 40.6606 18.34 40.2402 18.3776 39.7583C18.4152 39.2755 18.8386 38.9141 19.3175 38.9534L30.3238 39.8083C30.8062 39.8459 31.1668 40.2659 31.1292 40.7478C31.0933 41.2075 30.7109 41.5557 30.2576 41.5557Z" fill="#dc3545"/>
<path d="M51.0256 35.5004C50.6064 35.5004 50.2356 35.1979 50.1638 34.7698C50.0839 34.293 50.4052 33.8414 50.882 33.7628C51.1264 33.7217 51.3755 33.7017 51.625 33.7017C52.109 33.7017 52.5 34.0926 52.5 34.5767C52.5 35.0603 52.109 35.4517 51.625 35.4517C51.4703 35.4517 51.3178 35.4645 51.1708 35.4893C51.1225 35.4978 51.0738 35.5004 51.0256 35.5004Z" fill="#dc3545"/>
<path d="M30.6251 41.5766C30.4675 41.5766 30.3128 41.5676 30.1607 41.5501C29.6801 41.4958 29.3353 41.0621 29.3895 40.5832C29.4438 40.103 29.868 39.7458 30.3564 39.8125C30.4457 39.8223 30.5341 39.8274 30.6251 39.8274C31.1092 39.8274 31.5001 40.2183 31.5001 40.7024C31.5001 41.1861 31.1092 41.5766 30.6251 41.5766Z" fill="#dc3545"/>
<path d="M21.0143 32.6059C20.9793 32.6059 20.9442 32.6042 20.9092 32.5995C20.429 32.5418 20.0876 32.106 20.1444 31.6266C20.3029 30.3116 21.4227 29.3191 22.7502 29.3191C23.2343 29.3191 23.6252 29.7104 23.6252 30.1941C23.6252 30.6782 23.2343 31.0691 22.7502 31.0691C22.3076 31.0691 21.9337 31.3981 21.882 31.8347C21.8278 32.2795 21.4509 32.6059 21.0143 32.6059Z" fill="#dc3545"/>
<path d="M40.2509 32.8191C39.7672 32.8191 39.3759 32.4282 39.3759 31.9441C39.3759 31.4613 38.9841 31.0691 38.5009 31.0691C38.0172 31.0691 37.6259 30.6782 37.6259 30.1941C37.6259 29.7104 38.0172 29.3191 38.5009 29.3191C39.9479 29.3191 41.1259 30.497 41.1259 31.9441C41.1259 32.4282 40.7349 32.8191 40.2509 32.8191Z" fill="#dc3545"/>
<path d="M40.2509 37.2065C39.7672 37.2065 39.3759 36.8156 39.3759 36.3315V31.9441C39.3759 31.4604 39.7672 31.0691 40.2509 31.0691C40.7349 31.0691 41.1259 31.4604 41.1259 31.9441V36.3315C41.1259 36.8147 40.7349 37.2065 40.2509 37.2065Z" fill="#dc3545"/>
<path d="M38.5009 31.0691H22.75C22.2659 31.0691 21.875 30.6782 21.875 30.1941C21.875 29.7104 22.2659 29.3191 22.75 29.3191H38.5009C38.9849 29.3191 39.3759 29.7104 39.3759 30.1941C39.3759 30.6782 38.9849 31.0691 38.5009 31.0691Z" fill="#dc3545"/>
<path d="M29.3134 31.0676C28.8297 31.0676 28.4384 30.6767 28.4384 30.1926V7.4375C28.4384 6.95343 28.8297 6.5625 29.3134 6.5625C29.7974 6.5625 30.1884 6.95343 30.1884 7.4375V30.1926C30.1884 30.6767 29.7974 31.0676 29.3134 31.0676Z" fill="#dc3545"/>
<path d="M31.9375 31.0676C31.4534 31.0676 31.0625 30.6767 31.0625 30.1926V7.4375C31.0625 6.95343 31.4534 6.5625 31.9375 6.5625C32.4216 6.5625 32.8125 6.95343 32.8125 7.4375V30.1926C32.8125 30.6767 32.4216 31.0676 31.9375 31.0676Z" fill="#dc3545"/>
<path d="M31.9375 4.375C31.4534 4.375 31.0625 3.98407 31.0625 3.5C31.0625 3.25946 30.8655 3.0625 30.625 3.0625C30.3845 3.0625 30.1875 3.25946 30.1875 3.5C30.1875 3.98407 29.7966 4.375 29.3125 4.375C28.8284 4.375 28.4375 3.98407 28.4375 3.5C28.4375 2.29346 29.4185 1.3125 30.625 1.3125C31.8315 1.3125 32.8125 2.29346 32.8125 3.5C32.8125 3.98407 32.4216 4.375 31.9375 4.375Z" fill="#dc3545"/>
<path d="M43.3266 8.3125C42.8425 8.3125 42.4516 7.92157 42.4516 7.4375C42.4516 6.95343 42.8425 6.5625 43.3266 6.5625C43.5671 6.5625 43.7641 6.36554 43.7641 6.125C43.7641 5.88446 43.5671 5.6875 43.3266 5.6875C42.8425 5.6875 42.4516 5.29657 42.4516 4.8125C42.4516 4.32843 42.8425 3.9375 43.3266 3.9375C44.5331 3.9375 45.5141 4.91846 45.5141 6.125C45.5141 7.33154 44.5331 8.3125 43.3266 8.3125Z" fill="#dc3545"/>
<path d="M17.9492 8.3125C16.7422 8.3125 15.7617 7.33154 15.7617 6.125C15.7617 4.91846 16.7422 3.9375 17.9492 3.9375C18.4328 3.9375 18.8242 4.32843 18.8242 4.8125C18.8242 5.29657 18.4328 5.6875 17.9492 5.6875C17.7082 5.6875 17.5117 5.88446 17.5117 6.125C17.5117 6.36554 17.7082 6.5625 17.9492 6.5625C18.4328 6.5625 18.8242 6.95343 18.8242 7.4375C18.8242 7.92157 18.4319 8.3125 17.9492 8.3125Z" fill="#dc3545"/>
<path d="M43.3265 5.68921H18.0074C17.5234 5.68921 17.1324 5.29828 17.1324 4.81421C17.1324 4.33057 17.5234 3.93921 18.0074 3.93921H43.3265C43.8101 3.93921 44.2015 4.33057 44.2015 4.81421C44.2015 5.29828 43.8093 5.68921 43.3265 5.68921Z" fill="#dc3545"/>
<path d="M43.3265 8.3125H18.0074C17.5234 8.3125 17.1324 7.92157 17.1324 7.4375C17.1324 6.95343 17.5234 6.5625 18.0074 6.5625H43.3265C43.8101 6.5625 44.2015 6.95343 44.2015 7.4375C44.2015 7.92157 43.8093 8.3125 43.3265 8.3125Z" fill="#dc3545"/>
<path d="M29.3125 5.68921C28.8284 5.68921 28.4375 5.29828 28.4375 4.81421V3.5C28.4375 3.01593 28.8284 2.625 29.3125 2.625C29.7966 2.625 30.1875 3.01593 30.1875 3.5V4.81421C30.1875 5.29828 29.7966 5.68921 29.3125 5.68921Z" fill="#dc3545"/>
<path d="M31.9375 5.6875C31.4534 5.6875 31.0625 5.29657 31.0625 4.8125V3.5C31.0625 3.01593 31.4534 2.625 31.9375 2.625C32.4216 2.625 32.8125 3.01593 32.8125 3.5V4.8125C32.8125 5.29657 32.4216 5.6875 31.9375 5.6875Z" fill="#dc3545"/>
<path d="M18.3875 24.9426C15.4921 24.9426 13.1367 22.5881 13.1367 19.6926C13.1367 19.209 13.5276 18.8176 14.0117 18.8176C14.4953 18.8176 14.8867 19.209 14.8867 19.6926C14.8867 21.6229 16.4572 23.1926 18.3875 23.1926C20.3178 23.1926 21.8884 21.6229 21.8884 19.6926C21.8884 19.209 22.2793 18.8176 22.7634 18.8176C23.247 18.8176 23.6384 19.209 23.6384 19.6926C23.6384 22.5881 21.2817 24.9426 18.3875 24.9426Z" fill="#dc3545"/>
<path d="M22.7634 20.5676H14.0117C13.5276 20.5676 13.1367 20.1767 13.1367 19.6926C13.1367 19.209 13.5276 18.8176 14.0117 18.8176H22.7634C23.247 18.8176 23.6384 19.209 23.6384 19.6926C23.6384 20.1767 23.2462 20.5676 22.7634 20.5676Z" fill="#dc3545"/>
<path d="M14.0116 20.5676C13.9142 20.5676 13.8138 20.5509 13.7172 20.5159C13.2614 20.3536 13.0243 19.8528 13.1879 19.3987L17.565 7.14353C17.7265 6.68766 18.2273 6.44712 18.6823 6.61417C19.1381 6.77695 19.3753 7.27726 19.2116 7.73142L14.8349 19.9865C14.708 20.3446 14.3709 20.5676 14.0116 20.5676Z" fill="#dc3545"/>
<path d="M22.7633 20.5678C22.4036 20.5678 22.0669 20.3448 21.94 19.9868L17.565 7.73162C17.4014 7.27661 17.6393 6.7763 18.0943 6.61438C18.5464 6.44903 19.0497 6.68872 19.2116 7.14373L23.5866 19.3989C23.7502 19.8539 23.5123 20.3546 23.0572 20.5161C22.9603 20.5511 22.8603 20.5678 22.7633 20.5678Z" fill="#dc3545"/>
<path d="M42.911 25.8317C40.0087 25.8317 37.6469 23.4712 37.6469 20.5676C37.6469 20.084 38.0382 19.6926 38.5219 19.6926C39.0059 19.6926 39.3969 20.084 39.3969 20.5676C39.3969 22.5052 40.9738 24.0817 42.911 24.0817C44.8481 24.0817 46.4251 22.5052 46.4251 20.5676C46.4251 20.084 46.816 19.6926 47.3001 19.6926C47.7837 19.6926 48.1751 20.084 48.1751 20.5676C48.1751 23.4703 45.8132 25.8317 42.911 25.8317Z" fill="#dc3545"/>
<path d="M47.2867 21.4426H38.535C38.051 21.4426 37.66 21.0517 37.66 20.5676C37.66 20.084 38.051 19.6926 38.535 19.6926H47.2867C47.7708 19.6926 48.1617 20.084 48.1617 20.5676C48.1617 21.0517 47.7708 21.4426 47.2867 21.4426Z" fill="#dc3545"/>
<path d="M38.535 21.4426C38.444 21.4426 38.3505 21.4276 38.2586 21.3973C37.801 21.2448 37.5524 20.7496 37.7053 20.2903L42.0825 7.16017C42.2354 6.70259 42.7255 6.45393 43.189 6.60689C43.6466 6.75942 43.8953 7.25459 43.7423 7.71388L39.3652 20.844C39.243 21.211 38.9016 21.4426 38.535 21.4426Z" fill="#dc3545"/>
<path d="M47.2868 21.4427C46.9202 21.4427 46.5789 21.2111 46.4575 20.8441L42.0825 7.71397C41.9291 7.25553 42.1769 6.7595 42.6354 6.60697C43.0981 6.45402 43.589 6.70182 43.7424 7.16025L48.1174 20.2904C48.2703 20.7488 48.0225 21.2449 47.5641 21.3974C47.4714 21.4277 47.3778 21.4427 47.2868 21.4427Z" fill="#dc3545"/>
<path d="M31.227 34.6274C31.1718 34.6274 31.115 34.6218 31.0591 34.6107L17.3321 31.934C16.8578 31.8422 16.5481 31.382 16.6408 30.9078C16.7335 30.4331 17.1911 30.1233 17.667 30.2165L31.394 32.8928C31.8683 32.9846 32.178 33.4452 32.0853 33.9194C32.0041 34.3377 31.6375 34.6274 31.227 34.6274Z" fill="#dc3545"/>
<path d="M34.124 38.0764C33.6988 38.0764 33.3259 37.7667 33.2605 37.3326C33.1879 36.8549 33.516 36.4084 33.9936 36.3358L50.8959 33.7625C51.3745 33.6899 51.8201 34.018 51.8927 34.4957C51.9653 34.9737 51.6372 35.4198 51.1591 35.4924L34.256 38.0657C34.2124 38.073 34.1675 38.0764 34.124 38.0764Z" fill="#dc3545"/>
</svg>
