<svg width="56" height="56" viewBox="0 0 56 56" fill="none" xmlns="http://www.w3.org/2000/svg">
<path d="M55.5675 49.7672L54.7687 48.9682C54.4483 48.6477 53.9289 48.6478 53.6086 48.9681C53.2882 49.2884 53.2882 49.8078 53.6085 50.1281L54.2913 50.811L50.8112 54.2912L44.8947 48.3748L48.3749 44.8946L51.1351 47.6548C51.4556 47.975 51.9749 47.975 52.2952 47.6548C52.6156 47.3343 52.6156 46.815 52.2952 46.4947L48.9565 43.156C48.9559 43.1554 48.9555 43.1549 48.955 43.1543L46.6349 40.8342C46.6342 40.8335 46.6336 40.8331 46.6329 40.8324L44.5853 38.7848C44.3064 38.5058 43.9356 38.3521 43.5411 38.3521C43.1466 38.3521 42.7758 38.5058 42.497 38.7846L42.381 38.9007L39.4457 35.9647C41.5437 33.3434 43.059 30.237 43.7944 26.843H49.5743C50.0275 26.843 50.3946 26.4759 50.3946 26.0227C50.3946 25.5696 50.0275 25.2024 49.5743 25.2024H44.0852C44.1575 24.6807 44.2116 24.1533 44.2467 23.6207H53.4844C53.9375 23.6207 54.3047 23.2536 54.3047 22.8004C54.3047 22.3473 53.9375 21.9801 53.4844 21.9801H44.2951C44.2912 21.4493 44.2692 20.9219 44.229 20.3983H49.5744C50.0276 20.3983 50.3948 20.0312 50.3948 19.578C50.3948 19.1249 50.0276 18.7577 49.5744 18.7577H44.0416C43.4685 14.9866 41.9358 11.459 39.524 8.41203C39.2428 8.05689 38.727 7.99695 38.3716 8.27794C38.0165 8.55914 37.9564 9.07506 38.2375 9.43031C41.1283 13.0822 42.6562 17.4801 42.6562 22.1484C42.6562 33.4565 33.4565 42.6562 22.1484 42.6562C10.8404 42.6562 1.64062 33.4565 1.64062 22.1484C1.64062 10.8404 10.8404 1.64062 22.1484 1.64062C27.2604 1.64062 32.1575 3.53259 35.9372 6.96795C36.2724 7.27289 36.7915 7.24795 37.096 6.91272C37.4007 6.57748 37.376 6.05861 37.0406 5.75389C32.9583 2.04345 27.6695 0 22.1484 0C9.93573 0 0 9.93573 0 22.1484C0 32.9308 7.74528 41.9367 17.9641 43.8986V49.4329C17.9641 49.886 18.3312 50.2532 18.7844 50.2532C19.2375 50.2532 19.6047 49.886 19.6047 49.4329V44.15C20.1267 44.2099 20.6542 44.2519 21.1865 44.2748V53.2906C21.1865 53.7437 21.5537 54.1109 22.0068 54.1109C22.4599 54.1109 22.8271 53.7437 22.8271 53.2906V44.2855C23.3591 44.2694 23.8867 44.2355 24.4089 44.1824V49.4329C24.4089 49.886 24.7761 50.2532 25.2292 50.2532C25.6823 50.2532 26.0495 49.886 26.0495 49.4329V43.9528C29.7533 43.2919 33.1403 41.7064 35.9648 39.4457L38.9009 42.3811L38.7849 42.497C38.5059 42.7759 38.3522 43.1467 38.3522 43.5412C38.3522 43.9357 38.5059 44.3065 38.7847 44.5853L40.8331 46.6336C40.8335 46.634 40.8338 46.6344 40.8343 46.6349L43.1545 48.955C43.1549 48.9555 43.1555 48.9559 43.156 48.9565L49.7669 55.5673C50.0458 55.8464 50.4166 56 50.8111 56C51.2057 56 51.5763 55.8464 51.8553 55.5675L55.5675 51.8553C55.8464 51.5763 56 51.2057 56 50.8111C56 50.4166 55.8464 50.0458 55.5675 49.7672ZM38.371 37.2103L41.2207 40.0606L40.0607 41.2206L37.2104 38.3709C37.6113 37.9985 37.9985 37.6113 38.371 37.2103ZM43.7346 47.2148L42.5744 46.0547L46.0546 42.5745L47.2147 43.7347L43.7346 47.2148ZM43.5412 40.0609L44.8946 41.4143L41.4144 44.8945L40.061 43.5411L43.5412 40.0609Z" fill="#dc3545"/>
<path d="M10.7248 37.1647C14.0103 39.6343 17.9572 40.966 22.1484 41.0156C32.5518 41.0156 41.0156 32.5519 41.0156 22.1484C41.0156 11.745 32.5518 3.28125 22.1484 3.28125C17.1277 3.28125 12.4055 5.24639 8.85178 8.81464C5.31306 12.3677 3.33479 17.1 3.2812 22.1397C3.23198 26.7793 4.91778 31.2387 8.02797 34.6965C8.33093 35.0333 8.84959 35.0608 9.18646 34.7578C9.52334 34.4549 9.55079 33.9361 9.24782 33.5993C6.41326 30.448 4.87687 26.3844 4.92182 22.1572C4.97071 17.5478 6.77923 13.2205 10.0142 9.97248C13.2578 6.71552 17.5671 4.92188 22.1484 4.92188C31.6472 4.92188 39.3749 12.6497 39.3749 22.1484C39.3749 31.6472 31.6472 39.375 22.1581 39.3751C18.3279 39.3296 14.7153 38.1117 11.7105 35.8533C11.3486 35.5809 10.8341 35.6541 10.562 36.0162C10.2896 36.3783 10.3626 36.8926 10.7248 37.1647Z" fill="#dc3545"/>
<path d="M14 16.8001L21.7 25.9001L31.5 12.6001" stroke="#dc3545" stroke-width="1.5" stroke-linecap="round" stroke-linejoin="round"/>
<ellipse cx="21.8083" cy="31.6163" rx="1.4" ry="1.4" fill="#dc3545"/>
</svg>
