<svg width="56" height="56" viewBox="0 0 56 56" fill="none" xmlns="http://www.w3.org/2000/svg">
<path d="M46.6666 0H13.0666C10.7837 0 8.88623 1.65013 8.48583 3.8192C6.31676 4.2196 4.66663 6.11707 4.66663 8.4V51.3333C4.66663 53.9065 6.76009 56 9.33329 56H42.9333C45.2162 56 47.1137 54.3499 47.5141 52.1808C49.6832 51.7804 51.3333 49.8829 51.3333 47.6V4.66667C51.3333 2.09347 49.2398 0 46.6666 0ZM45.7333 51.3333C45.7333 52.8771 44.477 54.1333 42.9333 54.1333H9.33329C7.78956 54.1333 6.53329 52.8771 6.53329 51.3333V8.4C6.53329 6.85627 7.78956 5.6 9.33329 5.6H37.3333V13.0667C37.3333 13.5828 37.7514 14 38.2666 14H45.7333V51.3333ZM39.2 12.1333V6.91973L44.4136 12.1333H39.2ZM49.4666 47.6C49.4666 48.8152 48.6836 49.8419 47.6 50.2283V13.0667C47.6 12.8081 47.4954 12.5748 47.3256 12.4059L38.9274 4.00773C38.7585 3.83787 38.5252 3.73333 38.2666 3.73333H10.4384C10.8248 2.64973 11.8514 1.86667 13.0666 1.86667H46.6666C48.2104 1.86667 49.4666 3.12293 49.4666 4.66667V47.6Z" fill="#dc3545"/>
<path d="M26.1333 14C18.928 14 13.0667 19.8613 13.0667 27.0667C13.0667 34.272 18.928 40.1333 26.1333 40.1333C33.3386 40.1333 39.2 34.272 39.2 27.0667C39.2 19.8613 33.3386 14 26.1333 14ZM26.1333 38.2667C19.9574 38.2667 14.9333 33.2425 14.9333 27.0667C14.9333 20.8908 19.9574 15.8667 26.1333 15.8667C32.3092 15.8667 37.3333 20.8908 37.3333 27.0667C37.3333 33.2425 32.3092 38.2667 26.1333 38.2667Z" fill="#dc3545"/>
<path d="M29.0926 20.947L21.6258 32.1479L23.1791 33.1835L30.646 21.9825L29.0926 20.947Z" fill="#dc3545"/>
<path d="M30.8 27.0667C29.2563 27.0667 28 28.3229 28 29.8667C28 31.4104 29.2563 32.6667 30.8 32.6667C32.3437 32.6667 33.6 31.4104 33.6 29.8667C33.6 28.3229 32.3437 27.0667 30.8 27.0667ZM30.8 30.8C30.2857 30.8 29.8667 30.3819 29.8667 29.8667C29.8667 29.3515 30.2857 28.9333 30.8 28.9333C31.3143 28.9333 31.7333 29.3515 31.7333 29.8667C31.7333 30.3819 31.3143 30.8 30.8 30.8Z" fill="#dc3545"/>
<path d="M21.4666 21.4668C19.9229 21.4668 18.6666 22.7231 18.6666 24.2668C18.6666 25.8105 19.9229 27.0668 21.4666 27.0668C23.0104 27.0668 24.2666 25.8105 24.2666 24.2668C24.2666 22.7231 23.0104 21.4668 21.4666 21.4668ZM21.4666 25.2001C20.9524 25.2001 20.5333 24.782 20.5333 24.2668C20.5333 23.7516 20.9524 23.3335 21.4666 23.3335C21.9809 23.3335 22.4 23.7516 22.4 24.2668C22.4 24.782 21.9809 25.2001 21.4666 25.2001Z" fill="#dc3545"/>
<path d="M31.0735 41.3401L26.1334 46.2802L23.9932 44.1401L22.6735 45.4598L25.4735 48.2598C25.6555 48.4418 25.8944 48.5333 26.1334 48.5333C26.3723 48.5333 26.6112 48.4418 26.7932 48.2598L32.3932 42.6598L31.0735 41.3401Z" fill="#dc3545"/>
</svg>
