<?xml version="1.0" standalone="no"?>
<!DOCTYPE svg PUBLIC "-//W3C//DTD SVG 20010904//EN"
 "http://www.w3.org/TR/2001/REC-SVG-20010904/DTD/svg10.dtd">
<svg version="1.0" xmlns="http://www.w3.org/2000/svg"
 width="119.000000pt" height="119.000000pt" viewBox="0 0 119.000000 119.000000"
 preserveAspectRatio="xMidYMid meet">
<metadata>
Created by potrace 1.14, written by Peter Selinger 2001-2017
</metadata>
<g transform="translate(0.000000,119.000000) scale(0.100000,-0.100000)"
fill="#000000" stroke="none">
<path d="M858 1100 c-61 -48 -59 -142 5 -180 116 -71 234 73 141 172 -23 23
-36 28 -75 28 -31 0 -55 -6 -71 -20z"/>
<path d="M560 984 c0 -4 15 -30 34 -58 51 -78 73 -127 101 -221 42 -145 30
-271 -36 -396 -54 -101 -181 -211 -281 -245 -27 -8 -48 -18 -48 -21 0 -14 143
9 221 35 132 44 213 94 304 186 122 124 199 274 256 496 39 155 39 163 -8 119
-111 -105 -268 -83 -480 68 -35 24 -63 41 -63 37z"/>
<path d="M465 883 c-57 -115 -135 -173 -265 -195 -63 -11 -69 -14 -53 -25 10
-8 48 -43 85 -80 76 -74 143 -195 154 -276 10 -74 28 -58 21 21 -8 95 -30 157
-82 236 -25 38 -44 70 -43 71 2 2 26 14 53 28 51 26 94 65 134 125 30 43 41
33 81 -69 55 -142 57 -264 7 -372 -30 -63 -98 -149 -151 -188 -55 -40 -27 -37
37 5 233 151 270 433 94 724 -17 28 -34 52 -38 52 -4 0 -19 -26 -34 -57z"/>
<path d="M408 604 c-15 -33 -1 -58 36 -62 30 -4 34 -17 9 -31 -22 -12 -17 -16
23 -24 28 -5 32 -3 43 29 15 41 3 64 -35 64 -25 0 -32 14 -14 25 16 10 1 25
-26 25 -17 0 -28 -8 -36 -26z"/>
<path d="M117 542 c-36 -20 -64 -39 -62 -43 3 -3 20 -9 39 -12 59 -9 138 -55
199 -115 31 -31 57 -51 57 -44 0 47 -80 182 -133 224 l-34 26 -66 -36z"/>
<path d="M75 410 c-14 -22 -25 -42 -25 -45 0 -3 30 -5 68 -5 38 -1 90 -8 120
-19 28 -10 52 -15 52 -11 0 19 -101 88 -158 108 -31 11 -33 10 -57 -28z"/>
</g>
</svg>
